<mxfile host="Electron" agent="Mozilla/5.0 (Windows NT 10.0; Win64; x64) AppleWebKit/537.36 (KHTML, like Gecko) draw.io/24.7.5 Chrome/126.0.6478.183 Electron/31.3.0 Safari/537.36" version="24.7.5" pages="5">
  <diagram name="OpenGL" id="pUDRPZtlr3oLl2O7qHht">
    <mxGraphModel dx="1195" dy="803" grid="1" gridSize="10" guides="1" tooltips="1" connect="1" arrows="1" fold="1" page="1" pageScale="1" pageWidth="827" pageHeight="1169" math="0" shadow="0">
      <root>
        <mxCell id="0" />
        <mxCell id="1" parent="0" />
        <mxCell id="PeBTL-YXJBXvIR5UZIic-1" value="" style="shape=card;whiteSpace=wrap;html=1;" vertex="1" parent="1">
          <mxGeometry x="50" y="90" width="420" height="490" as="geometry" />
        </mxCell>
        <mxCell id="PeBTL-YXJBXvIR5UZIic-2" value="Vertex Array Objecty" style="rounded=1;whiteSpace=wrap;html=1;" vertex="1" parent="1">
          <mxGeometry x="80" y="130" width="240" height="60" as="geometry" />
        </mxCell>
        <mxCell id="PeBTL-YXJBXvIR5UZIic-3" value="Vertex Buffer Object" style="rounded=1;whiteSpace=wrap;html=1;" vertex="1" parent="1">
          <mxGeometry x="80" y="210" width="240" height="60" as="geometry" />
        </mxCell>
        <mxCell id="PeBTL-YXJBXvIR5UZIic-4" value="Element Buffer Object" style="rounded=1;whiteSpace=wrap;html=1;" vertex="1" parent="1">
          <mxGeometry x="80" y="290" width="240" height="60" as="geometry" />
        </mxCell>
        <mxCell id="PeBTL-YXJBXvIR5UZIic-5" value="Shader Storage Buffer Object" style="rounded=1;whiteSpace=wrap;html=1;" vertex="1" parent="1">
          <mxGeometry x="80" y="370" width="240" height="60" as="geometry" />
        </mxCell>
        <mxCell id="PeBTL-YXJBXvIR5UZIic-6" value="Uniform Buffer Object" style="rounded=1;whiteSpace=wrap;html=1;" vertex="1" parent="1">
          <mxGeometry x="80" y="450" width="240" height="60" as="geometry" />
        </mxCell>
      </root>
    </mxGraphModel>
  </diagram>
  <diagram id="NO4bZR6rCfETgABYq7O7" name="DirectX 11">
    <mxGraphModel dx="1434" dy="964" grid="1" gridSize="10" guides="1" tooltips="1" connect="1" arrows="1" fold="1" page="1" pageScale="1" pageWidth="827" pageHeight="1169" math="0" shadow="0">
      <root>
        <mxCell id="0" />
        <mxCell id="1" parent="0" />
      </root>
    </mxGraphModel>
  </diagram>
  <diagram id="HvSNaJyHlzVxqD404kJ7" name="DirectX 12">
    <mxGraphModel dx="1434" dy="964" grid="1" gridSize="10" guides="1" tooltips="1" connect="1" arrows="1" fold="1" page="1" pageScale="1" pageWidth="827" pageHeight="1169" math="0" shadow="0">
      <root>
        <mxCell id="0" />
        <mxCell id="1" parent="0" />
      </root>
    </mxGraphModel>
  </diagram>
  <diagram id="ygsD7srOkeNmvKdRJ-ka" name="Vulkan">
    <mxGraphModel dx="1434" dy="964" grid="1" gridSize="10" guides="1" tooltips="1" connect="1" arrows="1" fold="1" page="1" pageScale="1" pageWidth="827" pageHeight="1169" math="0" shadow="0">
      <root>
        <mxCell id="0" />
        <mxCell id="1" parent="0" />
      </root>
    </mxGraphModel>
  </diagram>
  <diagram id="CmlMtK46B_GySZaJKHiP" name="Metal">
    <mxGraphModel dx="1434" dy="964" grid="1" gridSize="10" guides="1" tooltips="1" connect="1" arrows="1" fold="1" page="1" pageScale="1" pageWidth="827" pageHeight="1169" math="0" shadow="0">
      <root>
        <mxCell id="0" />
        <mxCell id="1" parent="0" />
      </root>
    </mxGraphModel>
  </diagram>
</mxfile>
